<svg xmlns="http://www.w3.org/2000/svg" xmlns:xlink="http://www.w3.org/1999/xlink" width="90px" height="90px" viewBox="0 0 90 90" version="1.1">
<g id="surface1">
<path style=" stroke:none;fill-rule:nonzero;fill:#e3e0e0;fill-opacity:1;" d="M 73.511719 31.148438 C 72.5625 30.832031 71.613281 30.53125 70.664062 30.25 C 70.820312 29.601562 70.960938 28.949219 71.101562 28.300781 C 73.265625 17.824219 71.84375 9.40625 67.042969 6.628906 C 62.417969 3.972656 54.878906 6.734375 47.25 13.375 C 46.492188 14.027344 45.753906 14.710938 45.050781 15.398438 C 44.578125 14.941406 44.085938 14.484375 43.59375 14.042969 C 35.59375 6.941406 27.578125 3.953125 22.78125 6.75 C 18.175781 9.421875 16.804688 17.347656 18.738281 27.265625 C 18.929688 28.246094 19.140625 29.214844 19.386719 30.199219 C 18.261719 30.515625 17.15625 30.867188 16.117188 31.234375 C 6.730469 34.488281 0 39.621094 0 44.929688 C 0 50.414062 7.171875 55.917969 16.929688 59.257812 C 17.71875 59.519531 18.507812 59.785156 19.320312 60.011719 C 19.054688 61.066406 18.828125 62.101562 18.617188 63.175781 C 16.769531 72.929688 18.210938 80.664062 22.816406 83.320312 C 27.5625 86.0625 35.542969 83.25 43.3125 76.445312 C 43.925781 75.902344 44.542969 75.339844 45.15625 74.742188 C 45.929688 75.5 46.738281 76.21875 47.546875 76.921875 C 55.070312 83.390625 62.507812 86.007812 67.09375 83.355469 C 71.84375 80.613281 73.390625 72.296875 71.382812 62.171875 C 71.226562 61.398438 71.050781 60.609375 70.859375 59.800781 C 71.417969 59.640625 71.964844 59.46875 72.507812 59.289062 C 82.652344 55.933594 90 50.5 90 44.929688 C 90 39.601562 83.074219 34.4375 73.511719 31.148438 Z M 49.726562 16.226562 C 56.265625 10.53125 62.367188 8.296875 65.144531 9.898438 C 68.113281 11.601562 69.257812 18.492188 67.394531 27.542969 C 67.273438 28.140625 67.148438 28.722656 66.992188 29.300781 C 63.085938 28.421875 59.132812 27.789062 55.160156 27.4375 C 52.875 24.171875 50.378906 21.039062 47.671875 18.105469 C 48.355469 17.453125 49.023438 16.839844 49.726562 16.226562 Z M 29.390625 54.054688 C 30.285156 55.582031 31.203125 57.109375 32.167969 58.605469 C 29.425781 58.304688 26.703125 57.867188 24.011719 57.285156 C 24.785156 54.757812 25.75 52.136719 26.875 49.464844 C 27.6875 51.011719 28.511719 52.539062 29.390625 54.054688 Z M 24.0625 32.90625 C 26.59375 32.34375 29.285156 31.886719 32.078125 31.535156 C 31.148438 32.992188 30.234375 34.488281 29.371094 36 C 28.511719 37.492188 27.667969 39.023438 26.875 40.570312 C 25.769531 37.949219 24.835938 35.382812 24.0625 32.90625 Z M 28.878906 45.019531 C 30.039062 42.59375 31.304688 40.21875 32.640625 37.882812 C 33.976562 35.542969 35.421875 33.277344 36.929688 31.042969 C 39.570312 30.851562 42.257812 30.746094 45 30.746094 C 47.742188 30.746094 50.449219 30.851562 53.066406 31.042969 C 54.5625 33.257812 55.984375 35.527344 57.339844 37.84375 C 58.691406 40.164062 59.957031 42.539062 61.152344 44.945312 C 59.976562 47.375 58.710938 49.765625 57.355469 52.117188 C 56.019531 54.457031 54.597656 56.726562 53.101562 58.976562 C 50.484375 59.167969 47.757812 59.257812 45 59.257812 C 42.238281 59.257812 39.566406 59.167969 36.984375 59.011719 C 35.453125 56.777344 34.011719 54.492188 32.660156 52.15625 C 31.304688 49.816406 30.058594 47.445312 28.878906 45.019531 Z M 60.625 54.015625 C 61.523438 52.46875 62.367188 50.90625 63.195312 49.324219 C 64.320312 51.875 65.304688 54.457031 66.164062 57.113281 C 63.4375 57.726562 60.679688 58.203125 57.902344 58.519531 C 58.851562 57.042969 59.746094 55.53125 60.625 54.015625 Z M 63.15625 40.570312 C 62.332031 39.023438 61.488281 37.476562 60.609375 35.964844 C 59.746094 34.472656 58.851562 32.992188 57.917969 31.535156 C 60.75 31.886719 63.457031 32.363281 65.988281 32.941406 C 65.179688 35.542969 64.230469 38.074219 63.15625 40.570312 Z M 45.035156 20.796875 C 46.882812 22.796875 48.621094 24.90625 50.238281 27.085938 C 46.757812 26.929688 43.261719 26.929688 39.78125 27.085938 C 41.503906 24.820312 43.277344 22.710938 45.035156 20.796875 Z M 24.644531 10.019531 C 27.597656 8.296875 34.15625 10.757812 41.0625 16.875 C 41.5 17.261719 41.941406 17.683594 42.398438 18.105469 C 39.671875 21.039062 37.160156 24.171875 34.859375 27.4375 C 30.882812 27.789062 26.945312 28.40625 23.042969 29.265625 C 22.816406 28.371094 22.621094 27.457031 22.429688 26.542969 C 20.777344 18.035156 21.867188 11.617188 24.644531 10.019531 Z M 20.335938 56.355469 C 19.597656 56.144531 18.878906 55.917969 18.15625 55.671875 C 14.414062 54.492188 10.160156 52.628906 7.082031 50.1875 C 5.308594 48.957031 4.113281 47.058594 3.777344 44.929688 C 3.777344 41.714844 9.332031 37.601562 17.347656 34.804688 C 18.351562 34.453125 19.371094 34.136719 20.390625 33.839844 C 21.585938 37.652344 23.027344 41.398438 24.695312 45.019531 C 23.007812 48.691406 21.550781 52.488281 20.335938 56.355469 Z M 40.835938 73.582031 C 37.933594 76.238281 34.578125 78.347656 30.917969 79.789062 C 28.96875 80.71875 26.71875 80.808594 24.714844 80.015625 C 21.917969 78.398438 20.757812 72.195312 22.339844 63.84375 C 22.535156 62.859375 22.746094 61.875 22.992188 60.910156 C 26.929688 61.753906 30.902344 62.332031 34.925781 62.632812 C 37.246094 65.917969 39.796875 69.066406 42.519531 72.019531 C 41.960938 72.5625 41.394531 73.089844 40.835938 73.582031 Z M 45.140625 69.3125 C 43.347656 67.375 41.554688 65.234375 39.8125 62.929688 C 41.5 63 43.242188 63.035156 45 63.035156 C 46.808594 63.035156 48.585938 63 50.34375 62.914062 C 48.726562 65.144531 46.984375 67.273438 45.140625 69.3125 Z M 68.113281 74.585938 C 67.957031 76.726562 66.902344 78.734375 65.214844 80.085938 C 62.417969 81.703125 56.460938 79.59375 50.027344 74.074219 C 49.289062 73.441406 48.550781 72.757812 47.792969 72.054688 C 50.484375 69.082031 52.960938 65.9375 55.210938 62.632812 C 59.238281 62.296875 63.246094 61.683594 67.199219 60.785156 C 67.375 61.507812 67.535156 62.226562 67.675781 62.929688 C 68.535156 66.726562 68.675781 70.679688 68.113281 74.585938 Z M 71.3125 55.6875 C 70.820312 55.84375 70.328125 56.003906 69.820312 56.144531 C 68.589844 52.3125 67.078125 48.570312 65.335938 44.929688 C 67.023438 41.34375 68.449219 37.652344 69.644531 33.875 C 70.558594 34.136719 71.4375 34.417969 72.28125 34.699219 C 80.472656 37.511719 86.21875 41.695312 86.21875 44.894531 C 86.21875 48.339844 80.085938 52.789062 71.3125 55.6875 Z M 45 53.050781 C 49.445312 53.050781 53.050781 49.445312 53.050781 45 C 53.050781 40.554688 49.445312 36.949219 45 36.949219 C 40.550781 36.949219 36.949219 40.554688 36.949219 45 C 36.949219 49.445312 40.550781 53.050781 45 53.050781 Z M 45 53.050781 "/>
</g>
</svg>